<svg height="526" width="720" xmlns="http://www.w3.org/2000/svg">
<rect height="526" fill="#555" width="720"></rect>
<text fill="#7f7" font-family="Courier New" font-size="12" xml:space="preserve">
<tspan x="10" y="26">20 megabytes installed</tspan>
<tspan x="10" y="42"></tspan>
<tspan x="10" y="58">node_modules</tspan>
<tspan x="10" y="74">└─┬ jdbc@0.5.0 </tspan>
<tspan x="10" y="90">  ├── async@2.2.0 </tspan>
<tspan x="10" y="106">  ├─┬ java@0.8.0 </tspan>
<tspan x="10" y="122">  │ ├── async@2.0.1 </tspan>
<tspan x="10" y="138">  │ ├─┬ find-java-home@0.1.3 </tspan>
<tspan x="10" y="154">  │ │ └── which@1.0.9 </tspan>
<tspan x="10" y="170">  │ ├─┬ glob@7.1.1 </tspan>
<tspan x="10" y="186">  │ │ ├── fs.realpath@1.0.0 </tspan>
<tspan x="10" y="202">  │ │ ├─┬ inflight@1.0.6 </tspan>
<tspan x="10" y="218">  │ │ │ └── wrappy@1.0.2 </tspan>
<tspan x="10" y="234">  │ │ ├── inherits@2.0.3 </tspan>
<tspan x="10" y="250">  │ │ ├─┬ minimatch@3.0.3 </tspan>
<tspan x="10" y="266">  │ │ │ └─┬ brace-expansion@1.1.7 </tspan>
<tspan x="10" y="282">  │ │ │   ├── balanced-match@0.4.2 </tspan>
<tspan x="10" y="298">  │ │ │   └── concat-map@0.0.1 </tspan>
<tspan x="10" y="314">  │ │ ├── once@1.4.0 </tspan>
<tspan x="10" y="330">  │ │ └── path-is-absolute@1.0.1 </tspan>
<tspan x="10" y="346">  │ ├── lodash@4.16.4 </tspan>
<tspan x="10" y="362">  │ └── nan@2.4.0 </tspan>
<tspan x="10" y="378">  ├── lodash@4.17.4 </tspan>
<tspan x="10" y="394">  ├── uuid@3.0.1 </tspan>
<tspan x="10" y="410">  └─┬ winston@2.3.1 </tspan>
<tspan x="10" y="426">    ├── async@1.0.0 </tspan>
<tspan x="10" y="442">    ├── colors@1.0.3 </tspan>
<tspan x="10" y="458">    ├── cycle@1.0.3 </tspan>
<tspan x="10" y="474">    ├── eyes@0.1.8 </tspan>
<tspan x="10" y="490">    ├── isstream@0.1.2 </tspan>
<tspan x="10" y="506">    └── stack-trace@0.0.9</tspan>
</text>
</svg>
